PathFileType	4	(X/Y/Z)	./resultDataOpenSim/trcMotMarkerGrf/sub06/qtm-12-06.trc
DataRate	CameraRate	NumFrames	NumMarkers	Units	OrigDataRate	OrigDataStartFrame	OrigNumFrames
250.000000	250.000000	7	24	m	250.000000	270	538
Frame#	Time	L.Toe.Tip			R.Toe.Tip			L.Ankle.Lat			R.Ankle.Lat			L.Ankle.Med			R.Ankle.Med			L.Heel			R.Heel			L.Knee.Lat			R.Knee.Lat			L.Knee.Med			R.Knee.Med			L.Thigh.Upper			R.Thigh.Upper			L.ASIS			R.ASIS			V.Sacral			L.Acromium			R.Acromium			C7			L.Elbow			R.Elbow			L.Wrist.Lat			R.Wrist.Lat
		X1	Y1	Z1	X2	Y2	Z2	X3	Y3	Z3	X4	Y4	Z4	X5	Y5	Z5	X6	Y6	Z6	X7	Y7	Z7	X8	Y8	Z8	X9	Y9	Z9	X10	Y10	Z10	X11	Y11	Z11	X12	Y12	Z12	X13	Y13	Z13	X14	Y14	Z14	X15	Y15	Z15	X16	Y16	Z16	X17	Y17	Z17	X18	Y18	Z18	X19	Y19	Z19	X20	Y20	Z20	X21	Y21	Z21	X22	Y22	Z22	X23	Y23	Z23	X24	Y24	Z24

270	1.076	0.10452941	0.0090786514	-0.031531972	0.81277828	0.15346441	0.088383039	-0.0012625006	0.078718493	-0.060958914	0.67782721	0.11945688	0.1055379	0.0078569735	0.097535064	0.024182021	0.69007302	0.15455378	0.021569305	-0.076868662	0.078183663	-0.011870447	0.64280148	0.079550985	0.040578267	0.16130596	0.41600276	-0.093432223	0.55089299	0.48648984	0.12634887	0.16141315	0.42106014	0.028441273	0.5220192	0.45702212	-0.0014955494	0.24700356	0.78707563	-0.1642518	0.34316731	0.7911789	0.17398499	0.33860671	0.83331607	-0.14325902	0.40509276	0.84865947	0.095431715	0.1930525	0.91158988	0.025451623	0.32555921	1.3250861	-0.18566002	0.30745146	1.3057842	0.17681015	0.237409	1.3504918	-0.0089663993	0.37283329	0.99723409	-0.24323447	0.14820106	1.0388987	0.2256474	0.62965731	1.0075554	-0.18769855	0.1649883	0.81784469	0.3149963
271	1.08	0.10459968	0.0090883458	-0.031546706	0.82029077	0.1528583	0.086183075	-0.00014243221	0.079771817	-0.061231808	0.68525399	0.1182941	0.10283927	0.0090885129	0.098529708	0.023844832	0.69783438	0.15371166	0.019012624	-0.075840964	0.08013133	-0.012362072	0.6508763	0.078331762	0.037524878	0.16578102	0.4154762	-0.09377528	0.55779394	0.48488361	0.1253598	0.16646708	0.4202777	0.028308536	0.52938987	0.4563022	-0.0031722467	0.25282995	0.78597879	-0.16379723	0.35115422	0.79001898	0.17374346	0.34467341	0.83230667	-0.14352731	0.41267339	0.84740323	0.094759926	0.20087648	0.91060498	0.025273229	0.33179976	1.3237658	-0.18572122	0.3139669	1.3045098	0.17691491	0.24386029	1.3493201	-0.0088963445	0.38463369	0.99528082	-0.24431993	0.15425344	1.0381166	0.22581986	0.63730637	1.0090474	-0.18655811	0.16968223	0.81743584	0.31610965
272	1.084	0.10467237	0.0090983263	-0.031522564	0.82732975	0.15190509	0.083936755	0.00098848462	0.080886335	-0.061524599	0.69214254	0.11699663	0.1001768	0.0104074	0.099582665	0.023484315	0.70508542	0.15264116	0.016453819	-0.074697872	0.082176758	-0.012833314	0.65835034	0.076974862	0.034537252	0.17037156	0.41493543	-0.09414651	0.56458669	0.48328129	0.12429993	0.17164164	0.41940209	0.028209281	0.53682911	0.45574028	-0.0048889211	0.25876157	0.78488818	-0.16335094	0.35922897	0.78895188	0.1735518	0.35083241	0.8313164	-0.14378928	0.42028102	0.84617768	0.094080205	0.20827782	0.90953945	0.025528333	0.33804247	1.3224659	-0.18576643	0.32054861	1.3032461	0.17705304	0.25031573	1.348154	-0.0087957042	0.39584292	0.99327683	-0.24469815	0.16042458	1.0373088	0.22603262	0.64488087	1.0103959	-0.18545664	0.17446942	0.81699762	0.31720132
273	1.088	0.10474197	0.0090992167	-0.031456257	0.8339052	0.15061757	0.081615641	0.0021721528	0.082051231	-0.061852016	0.69875549	0.11539265	0.097484516	0.011809752	0.10069047	0.023098418	0.71184586	0.15134433	0.013904842	-0.073426797	0.084328168	-0.013266546	0.66523111	0.075470187	0.031635125	0.17511434	0.41437677	-0.094505067	0.57129208	0.48167395	0.12316391	0.17696216	0.41849271	0.028077805	0.54424377	0.45529605	-0.0065261013	0.26479808	0.78381684	-0.16292404	0.3673697	0.78798496	0.17342945	0.3570899	0.83033124	-0.14405968	0.42792046	0.84498337	0.093394979	0.21561287	0.90842481	0.02591906	0.34428837	1.3211875	-0.18579438	0.32719248	1.3019946	0.17721978	0.25678754	1.3469977	-0.0086556019	0.40522805	0.99136491	-0.24409987	0.16671695	1.0364796	0.22628258	0.65238346	1.0115989	-0.18439878	0.17931498	0.81652421	0.31826418
274	1.092	0.10481086	0.0090847729	-0.031393832	0.84003664	0.14899078	0.079178244	0.0034763602	0.083247675	-0.062229822	0.70520344	0.11341596	0.094741761	0.013305535	0.10184427	0.02268683	0.71815171	0.14982405	0.011371747	-0.072037786	0.086574675	-0.013691655	0.67152767	0.07381171	0.028840178	0.18002885	0.41380007	-0.094840956	0.5778995	0.48005172	0.12194065	0.18231966	0.41771337	0.027841864	0.55155371	0.45494244	-0.0080011806	0.27093632	0.78277145	-0.16252857	0.37552518	0.78709975	0.1733706	0.36345841	0.82933708	-0.14434691	0.43559157	0.84382358	0.092707356	0.22303619	0.90735733	0.026485791	0.35054456	1.3199328	-0.18579762	0.3338922	1.3007537	0.17740991	0.26328578	1.3458535	-0.0084678506	0.41298654	0.98961153	-0.24295293	0.17313485	1.0356344	0.22656484	0.65982139	1.0126548	-0.18337705	0.18427945	0.81601763	0.31930227
275	1.096	0.1048895	0.0090593951	-0.03139432	0.84573309	0.14703497	0.076603584	0.0049239758	0.084472212	-0.062665856	0.71128228	0.11121804	0.09201934	0.014910053	0.10303429	0.022245661	0.72401949	0.14808913	0.0088558119	-0.070542177	0.088906985	-0.01414094	0.67725132	0.071997052	0.026166309	0.18511431	0.41320764	-0.095175115	0.5843619	0.47840829	0.12061205	0.18755447	0.41719733	0.027493021	0.55873725	0.45465991	-0.0093122668	0.27717297	0.78175207	-0.16216053	0.38368947	0.78629634	0.17337243	0.36994377	0.82833109	-0.14464372	0.44328712	0.84270761	0.092020291	0.23047232	0.90639025	0.027322121	0.35681659	1.3187098	-0.18577037	0.34064506	1.2995299	0.17761995	0.26980755	1.3447211	-0.0082339768	0.42016921	0.98809713	-0.24180357	0.17968227	1.0347758	0.22687507	0.66719769	1.0135646	-0.18238083	0.18943699	0.81548304	0.32032182
276	1.1	0.10499101	0.0090396437	-0.031457926	0.85099485	0.14477818	0.073899096	0.0064912559	0.085740432	-0.063156227	0.71677936	0.10895637	0.089387943	0.016625218	0.10425503	0.02175913	0.72943128	0.14615165	0.0063621703	-0.068936088	0.091323388	-0.014628305	0.68242125	0.070024009	0.023613054	0.19036387	0.41260014	-0.09552288	0.59065524	0.4767485	0.11917952	0.19273013	0.41681641	0.027106511	0.5658014	0.45443107	-0.010507927	0.28350879	0.78075151	-0.16179545	0.39191861	0.78559516	0.17345155	0.3765403	0.82732021	-0.14493436	0.4510006	0.8416486	0.091340378	0.23787024	0.90548621	0.028249761	0.36310871	1.3175292	-0.18570937	0.34744775	1.2983363	0.1778516	0.2763514	1.3435996	-0.0079646569	0.42758217	0.98685299	-0.24088194	0.18635895	1.0339082	0.2272114	0.67450765	1.0143295	-0.18140513	0.1948268	0.81492522	0.32132579
